<svg width="24" height="24" xmlns="http://www.w3.org/2000/svg">

 <g>
  <rect fill="none" id="canvas_background" height="402" width="582" y="-1" x="-1"/>
 </g>
 <g>
  <path id="svg_1" d="m0,0l24,0l0,24l-24,0l0,-24z" fill="none"/>
  <path fill="#ffffff" id="svg_2" d="m18,16.08c-0.76,0 -1.44,0.3 -1.96,0.77l-7.13,-4.15c0.05,-0.23 0.09,-0.46 0.09,-0.7s-0.04,-0.47 -0.09,-0.7l7.05,-4.11c0.54,0.5 1.25,0.81 2.04,0.81c1.66,0 3,-1.34 3,-3s-1.34,-3 -3,-3s-3,1.34 -3,3c0,0.24 0.04,0.47 0.09,0.7l-7.05,4.11c-0.54,-0.5 -1.25,-0.81 -2.04,-0.81c-1.66,0 -3,1.34 -3,3s1.34,3 3,3c0.79,0 1.5,-0.31 2.04,-0.81l7.12,4.16c-0.05,0.21 -0.08,0.43 -0.08,0.65c0,1.61 1.31,2.92 2.92,2.92s2.92,-1.31 2.92,-2.92s-1.31,-2.92 -2.92,-2.92z"/>
 </g>
</svg>